<?xml version="1.0" encoding="utf-8"?>
<!-- Generator: Adobe Illustrator 16.0.0, SVG Export Plug-In . SVG Version: 6.00 Build 0)  -->
<!DOCTYPE svg PUBLIC "-//W3C//DTD SVG 1.1//EN" "http://www.w3.org/Graphics/SVG/1.1/DTD/svg11.dtd">
<svg version="1.1" id="Layer_1" xmlns="http://www.w3.org/2000/svg" xmlns:xlink="http://www.w3.org/1999/xlink" x="0px" y="0px"
	 width="256px" height="256px" viewBox="0 0 256 256" enable-background="new 0 0 256 256" xml:space="preserve">
<radialGradient id="SVGID_1_" cx="127.6299" cy="123.9258" r="128" fx="236.5778" fy="63.3191" gradientUnits="userSpaceOnUse">
	<stop  offset="0" style="stop-color:#FFFFFF"/>
	<stop  offset="0.9655" style="stop-color:#000000"/>
</radialGradient>
<rect fill="url(#SVGID_1_)" stroke="#4CBB7F" stroke-miterlimit="10" width="256" height="256"/>
<rect x="81.238" y="65.983" width="36.918" height="3.733"/>
<rect x="81.238" y="86.724" width="36.918" height="3.941"/>
<rect x="81.238" y="107.257" width="36.918" height="4.148"/>
<rect x="152.795" y="145.005" width="36.918" height="4.148"/>
<rect x="152.795" y="165.953" width="36.918" height="3.941"/>
<rect x="152.795" y="186.072" width="36.918" height="4.148"/>
<rect x="75.638" y="163.88" width="39.823" height="4.978"/>
<rect x="140.764" y="86.724" width="39.615" height="4.978"/>
<circle cx="70.909" cy="67.912" r="5.807"/>
<circle cx="70.909" cy="88.342" r="5.807"/>
<circle cx="70.909" cy="108.979" r="5.807"/>
<line fill="none" x1="165.031" y1="69.717" x2="183.697" y2="89.213"/>
<line fill="none" x1="183.697" y1="89.213" x2="183.697" y2="89.213"/>
<line fill="none" x1="183.697" y1="89.213" x2="165.031" y2="107.257"/>
<line fill="none" x1="162.335" y1="102.072" x2="165.031" y2="107.257"/>
<line x1="165.031" y1="107.257" x2="183.697" y2="89.213"/>
<line x1="165.052" y1="107.259" x2="183.409" y2="88.902"/>
<path fill="none" d="M172.201,100.326c3.832-3.705,7.664-7.409,11.496-11.113"/>
<line x1="165.031" y1="107.257" x2="183.697" y2="89.213"/>
<polygon points="184.186,88.921 176.846,88.744 162.458,75.7 165.318,69.717 "/>
<polygon points="162.335,102.072 165.031,107.257 184.186,88.921 176.846,88.744 "/>
<polygon points="118.707,166.803 111.367,166.626 96.979,153.583 99.839,147.599 "/>
<polygon points="96.856,179.955 99.553,185.139 118.707,166.803 111.367,166.626 "/>
<g>
	<path d="M140.805,143.769h-0.041l-2.499,1.189l-0.504-2.298l3.468-1.613h2.539v13.103h-2.963V143.769z"/>
</g>
<g>
	<g>
		<linearGradient id="SVGID_2_" gradientUnits="userSpaceOnUse" x1="137.3389" y1="166.9648" x2="146.6309" y2="166.9648">
			<stop  offset="0" style="stop-color:#FFFFFF"/>
			<stop  offset="1" style="stop-color:#000000"/>
		</linearGradient>
		<path fill="url(#SVGID_2_)" d="M137.339,173.627v-1.854l1.692-1.531c2.862-2.561,4.254-4.031,4.294-5.564
			c0-1.067-0.646-1.914-2.157-1.914c-1.129,0-2.116,0.564-2.802,1.088l-0.866-2.196c0.987-0.746,2.52-1.351,4.293-1.351
			c2.963,0,4.597,1.733,4.597,4.111c0,2.197-1.593,3.951-3.488,5.645l-1.208,1.008v0.04h4.938v2.52H137.339z"/>
	</g>
	<g>
		<path d="M137.339,173.627v-1.854l1.692-1.531c2.862-2.561,4.254-4.031,4.294-5.564c0-1.067-0.646-1.914-2.157-1.914
			c-1.129,0-2.116,0.564-2.802,1.088l-0.866-2.196c0.987-0.746,2.52-1.351,4.293-1.351c2.963,0,4.597,1.733,4.597,4.111
			c0,2.197-1.593,3.951-3.488,5.645l-1.208,1.008v0.04h4.938v2.52H137.339z"/>
	</g>
</g>
<g>
	<path d="M138.592,191.51c0.544,0.283,1.794,0.807,3.044,0.807c1.592,0,2.397-0.766,2.397-1.754c0-1.29-1.29-1.874-2.64-1.874h-1.25
		v-2.197h1.189c1.027-0.021,2.338-0.403,2.338-1.512c0-0.786-0.645-1.371-1.935-1.371c-1.068,0-2.197,0.464-2.742,0.786
		l-0.624-2.218c0.785-0.504,2.357-0.987,4.052-0.987c2.801,0,4.354,1.472,4.354,3.266c0,1.391-0.786,2.479-2.398,3.044v0.04
		c1.572,0.282,2.842,1.472,2.842,3.185c0,2.318-2.036,4.012-5.361,4.012c-1.693,0-3.125-0.443-3.891-0.927L138.592,191.51z"/>
</g>
</svg>
